<?xml version="1.0" encoding="utf-8"?>
<!-- Generator: Adobe Illustrator 16.0.0, SVG Export Plug-In . SVG Version: 6.00 Build 0)  -->
<!DOCTYPE svg PUBLIC "-//W3C//DTD SVG 1.1//EN" "http://www.w3.org/Graphics/SVG/1.1/DTD/svg11.dtd">
<svg version="1.1" id="Layer_1" xmlns="http://www.w3.org/2000/svg" xmlns:xlink="http://www.w3.org/1999/xlink" x="0px" y="0px"
	 width="26.36px" height="25.977px" viewBox="3.056 0 26.36 25.977" enable-background="new 3.056 0 26.36 25.977"
	 xml:space="preserve">
<g>
	<g>
		<path fill="#2B2B2B" d="M10.568,17.483h15.629c1.772,0,3.219-1.447,3.219-3.218v-5.11c0-0.012,0-0.023-0.006-0.035
			c0-0.012-0.006-0.029-0.006-0.041s-0.006-0.023-0.006-0.035c-0.006-0.012-0.006-0.023-0.013-0.041
			c-0.005-0.012-0.005-0.023-0.012-0.035c-0.005-0.012-0.005-0.023-0.011-0.035s-0.013-0.023-0.018-0.041
			c-0.006-0.012-0.012-0.023-0.018-0.029l-0.018-0.035c-0.006-0.012-0.011-0.018-0.018-0.03c-0.005-0.011-0.017-0.022-0.023-0.034
			c-0.005-0.012-0.012-0.017-0.023-0.03c-0.005-0.011-0.017-0.017-0.023-0.029c-0.005-0.012-0.017-0.017-0.023-0.029
			c-0.005-0.012-0.017-0.018-0.022-0.023l-0.029-0.029c-0.012-0.006-0.018-0.018-0.029-0.023c-0.012-0.006-0.023-0.018-0.035-0.023
			c-0.011-0.006-0.018-0.012-0.029-0.018c-0.012-0.005-0.023-0.012-0.035-0.023l-0.069-0.034l-0.035-0.018
			c-0.012-0.005-0.023-0.005-0.035-0.012c-0.012-0.005-0.028-0.012-0.04-0.012s-0.023-0.005-0.029-0.005
			c-0.018-0.006-0.029-0.006-0.047-0.006c-0.006,0-0.012-0.006-0.023-0.006L8.93,6.05V2.604c0-0.029,0-0.058-0.006-0.082
			c0-0.005,0-0.012-0.006-0.023c0-0.017-0.006-0.035-0.006-0.052C8.907,2.429,8.907,2.418,8.901,2.4
			c0-0.012-0.006-0.017-0.006-0.029L8.877,2.319c0-0.006-0.006-0.018-0.006-0.023C8.866,2.277,8.86,2.266,8.849,2.249
			C8.842,2.242,8.842,2.231,8.837,2.225C8.831,2.213,8.825,2.202,8.813,2.19C8.808,2.179,8.802,2.173,8.796,2.161
			C8.79,2.15,8.784,2.144,8.778,2.132C8.772,2.12,8.761,2.108,8.755,2.097L8.703,2.044L8.685,2.027
			C8.673,2.016,8.662,2.004,8.644,1.992C8.638,1.986,8.627,1.98,8.621,1.974C8.609,1.962,8.598,1.957,8.586,1.945
			C8.568,1.934,8.551,1.922,8.54,1.917C8.534,1.91,8.527,1.91,8.522,1.905C8.499,1.893,8.47,1.881,8.446,1.87L4.149,0.062
			C3.748-0.106,3.287,0.08,3.118,0.481C2.949,0.885,3.135,1.345,3.537,1.514L7.35,3.123v14.856c0,1.631,1.225,2.984,2.804,3.188
			C9.869,21.646,9.7,22.205,9.7,22.801c0,1.754,1.428,3.176,3.177,3.176s3.178-1.428,3.178-3.176c0-0.583-0.158-1.138-0.438-1.604
			h7.078c-0.28,0.474-0.438,1.021-0.438,1.604c0,1.754,1.428,3.176,3.177,3.176s3.178-1.428,3.178-3.176
			c0-1.75-1.429-3.178-3.178-3.178H10.568c-0.909,0-1.644-0.74-1.644-1.644v-0.94C9.402,17.319,9.968,17.483,10.568,17.483
			L10.568,17.483z M14.486,22.794c0,0.887-0.723,1.604-1.604,1.604c-0.88,0-1.603-0.724-1.603-1.604
			c0-0.881,0.723-1.603,1.603-1.603C13.763,21.191,14.486,21.907,14.486,22.794L14.486,22.794z M27.043,22.794
			c0,0.887-0.723,1.604-1.603,1.604c-0.881,0-1.604-0.724-1.604-1.604c0-0.881,0.724-1.603,1.604-1.603
			C26.32,21.191,27.043,21.907,27.043,22.794L27.043,22.794z M26.197,15.908H10.568c-0.909,0-1.644-0.741-1.644-1.644V7.636
			L27.842,9.9v4.358C27.842,15.174,27.102,15.908,26.197,15.908L26.197,15.908z M26.197,15.908"/>
	</g>
</g>
</svg>
