<svg width="49" height="50" viewBox="0 0 49 50" fill="none" xmlns="http://www.w3.org/2000/svg">
<path d="M45.9794 25.2989C45.781 24.8929 45.781 24.4273 45.9794 24.0213L47.8189 20.2583C48.843 18.1631 48.0316 15.6658 45.9715 14.5727L42.2715 12.6096C41.8724 12.3978 41.5987 12.021 41.5206 11.5761L40.797 7.45042C40.394 5.15338 38.2692 3.60982 35.9605 3.93647L31.8133 4.52311C31.3657 4.5863 30.923 4.44239 30.5983 4.12826L27.588 1.21607C25.9118 -0.405513 23.2859 -0.405609 21.6098 1.21607L18.5993 4.12855C18.2745 4.44277 17.8319 4.5864 17.3843 4.5234L13.2371 3.93676C10.9277 3.60992 8.80363 5.15367 8.40069 7.45071L7.67708 11.5761C7.59895 12.0212 7.32529 12.3979 6.9262 12.6097L3.22624 14.5729C1.16617 15.6658 0.354703 18.1633 1.37886 20.2586L3.21825 24.0215C3.41668 24.4276 3.41668 24.8932 3.21825 25.2991L1.37877 29.0621C0.354607 31.1573 1.16607 33.6546 3.22614 34.7477L6.9261 36.7108C7.32529 36.9225 7.59895 37.2994 7.67708 37.7443L8.40069 41.87C8.76751 43.961 10.5606 45.4275 12.6213 45.4273C12.8243 45.4273 13.0302 45.4131 13.2372 45.3838L17.3844 44.7972C17.8317 44.7337 18.2746 44.8779 18.5994 45.192L21.6098 48.1042C22.448 48.9151 23.5232 49.3204 24.5988 49.3204C25.6741 49.3203 26.75 48.9149 27.5879 48.1042L30.5983 45.192C30.9231 44.8779 31.3659 44.7344 31.8133 44.7972L35.9605 45.3838C38.2703 45.7105 40.394 44.1669 40.797 41.8699L41.5207 37.7444C41.5988 37.2994 41.8725 36.9226 42.2715 36.7108L45.9715 34.7477C48.0316 33.6547 48.843 31.1572 47.8189 29.062L45.9794 25.2989ZM44.6382 32.2347L40.9383 34.1979C39.7586 34.8239 38.9496 35.9373 38.7189 37.2528L37.9953 41.3783C37.8589 42.1555 37.1404 42.6775 36.3589 42.5672L32.2117 41.9805C30.8891 41.7932 29.5804 42.2188 28.6205 43.1474L25.6101 46.0594C25.0431 46.6079 24.1547 46.6079 23.5875 46.0594L20.5771 43.1473C19.7659 42.3625 18.7053 41.9372 17.5981 41.9372C17.3952 41.9372 17.1907 41.9514 16.9859 41.9804L12.8387 42.5671C12.0579 42.6775 11.3388 42.1554 11.2024 41.3782L10.4787 37.2526C10.2479 35.9371 9.43891 34.8237 8.25919 34.1978L4.55923 32.2346C3.8622 31.8648 3.58766 31.02 3.93415 30.3111L5.77363 26.548C6.36008 25.3482 6.36008 23.972 5.77363 22.7722L3.93415 19.0091C3.58766 18.3002 3.8622 17.4553 4.55923 17.0855L8.25919 15.1224C9.43882 14.4963 10.2479 13.383 10.4786 12.0675L11.2022 7.94198C11.3386 7.16481 12.057 6.64271 12.8385 6.7531L16.9857 7.33974C18.3078 7.5269 19.617 7.10142 20.5769 6.17292L23.5874 3.26073C24.1544 2.71224 25.0428 2.71224 25.61 3.26073L28.6203 6.17292C29.5802 7.10152 30.8892 7.5269 32.2115 7.33974L36.3587 6.7531C37.1397 6.64261 37.8588 7.16481 37.9951 7.94198L38.7187 12.0676C38.9495 13.3831 39.7584 14.4965 40.9382 15.1224L44.6381 17.0855C45.3352 17.4553 45.6097 18.3002 45.2632 19.0091L43.4237 22.7721C42.8373 23.9718 42.8373 25.3482 43.4237 26.5479L45.2632 30.3109C45.6098 31.02 45.3353 31.8649 44.6382 32.2347Z" fill="#F2C94C"/>
<path d="M34.9913 14.2678C34.436 13.7124 33.5353 13.7124 32.9799 14.2678L14.2066 33.0411C13.6512 33.5966 13.6512 34.4971 14.2066 35.0526C14.4843 35.3303 14.8483 35.4692 15.2123 35.4692C15.5762 35.4692 15.9403 35.3304 16.2179 35.0526L34.9912 16.2793C35.5468 15.7238 35.5468 14.8233 34.9913 14.2678Z" fill="#F2C94C"/>
<path d="M18.9097 11.8595C16.0341 11.8595 13.6946 14.1991 13.6946 17.0746C13.6946 19.9502 16.0341 22.2897 18.9097 22.2897C21.7853 22.2897 24.1248 19.9502 24.1248 17.0746C24.1248 14.1991 21.7853 11.8595 18.9097 11.8595ZM18.9097 19.4451C17.6026 19.4451 16.5392 18.3817 16.5392 17.0745C16.5392 15.7675 17.6026 14.7041 18.9097 14.7041C20.2168 14.7041 21.2802 15.7675 21.2802 17.0745C21.2801 18.3817 20.2168 19.4451 18.9097 19.4451Z" fill="#F2C94C"/>
<path d="M30.2879 27.0306C27.4123 27.0306 25.0728 29.3701 25.0728 32.2457C25.0728 35.1213 27.4123 37.4608 30.2879 37.4608C33.1634 37.4608 35.5029 35.1213 35.5029 32.2457C35.5029 29.3701 33.1634 27.0306 30.2879 27.0306ZM30.2879 34.6162C28.9808 34.6162 27.9173 33.5528 27.9173 32.2457C27.9173 30.9387 28.9807 29.8753 30.2879 29.8753C31.5949 29.8753 32.6583 30.9387 32.6583 32.2457C32.6583 33.5528 31.5949 34.6162 30.2879 34.6162Z" fill="#F2C94C"/>
</svg>
