<?xml version="1.0" encoding="utf-8"?>
<!-- Generator: Adobe Illustrator 16.0.0, SVG Export Plug-In . SVG Version: 6.00 Build 0)  -->
<!DOCTYPE svg PUBLIC "-//W3C//DTD SVG 1.1//EN" "http://www.w3.org/Graphics/SVG/1.1/DTD/svg11.dtd">
<svg version="1.1" id="Layer_1" xmlns="http://www.w3.org/2000/svg" xmlns:xlink="http://www.w3.org/1999/xlink" x="0px" y="0px"
	 width="42.422px" height="41.813px" viewBox="-16.07 0 42.422 41.813" enable-background="new -16.07 0 42.422 41.813"
	 xml:space="preserve">
<g>
	<g>
		<path fill="#0397B4" d="M-3.982,28.134H21.17c2.852,0,5.182-2.327,5.182-5.178v-8.224c0-0.02,0-0.036-0.01-0.055
			c0-0.021-0.012-0.048-0.012-0.067c0-0.021-0.01-0.037-0.01-0.057c-0.01-0.019-0.01-0.037-0.02-0.065
			c-0.008-0.019-0.008-0.037-0.02-0.057c-0.008-0.019-0.008-0.037-0.02-0.057c-0.008-0.019-0.02-0.036-0.027-0.066
			c-0.01-0.019-0.02-0.035-0.027-0.047l-0.031-0.055c-0.008-0.021-0.016-0.029-0.027-0.048c-0.008-0.018-0.027-0.037-0.037-0.057
			c-0.008-0.019-0.02-0.026-0.037-0.048c-0.01-0.018-0.029-0.026-0.037-0.046C26.03,13.989,26.01,13.981,26,13.962
			s-0.027-0.028-0.035-0.037l-0.047-0.047c-0.02-0.009-0.029-0.029-0.047-0.037c-0.021-0.01-0.037-0.028-0.057-0.036
			c-0.02-0.011-0.029-0.021-0.047-0.029c-0.02-0.008-0.035-0.02-0.057-0.036l-0.109-0.055l-0.057-0.03
			c-0.021-0.009-0.039-0.009-0.057-0.02c-0.02-0.008-0.045-0.019-0.064-0.019s-0.037-0.008-0.047-0.008
			c-0.029-0.01-0.047-0.01-0.076-0.01c-0.01,0-0.02-0.011-0.035-0.011L-6.617,9.737V4.19c0-0.046,0-0.093-0.009-0.132
			c0-0.008,0-0.019-0.009-0.037c0-0.028-0.009-0.056-0.009-0.084c-0.008-0.028-0.008-0.046-0.019-0.076
			c0-0.019-0.009-0.026-0.009-0.045l-0.028-0.085c0-0.009-0.01-0.028-0.01-0.036C-6.719,3.664-6.731,3.646-6.748,3.62
			c-0.011-0.011-0.011-0.03-0.019-0.039c-0.01-0.02-0.019-0.037-0.039-0.057c-0.008-0.017-0.018-0.026-0.027-0.045
			C-6.842,3.46-6.851,3.45-6.863,3.431c-0.009-0.019-0.026-0.039-0.036-0.056L-6.982,3.29l-0.03-0.028
			c-0.019-0.017-0.036-0.036-0.066-0.055c-0.009-0.012-0.026-0.021-0.036-0.03C-7.134,3.157-7.152,3.15-7.17,3.13
			C-7.2,3.112-7.227,3.094-7.244,3.086c-0.009-0.012-0.022-0.012-0.03-0.021C-7.31,3.046-7.358,3.027-7.397,3.01l-6.915-2.911
			c-0.645-0.27-1.386,0.03-1.658,0.674c-0.272,0.651,0.027,1.391,0.674,1.663l6.136,2.59v23.906c0,2.625,1.973,4.803,4.512,5.131
			c-0.458,0.771-0.73,1.671-0.73,2.63c0,2.822,2.298,5.11,5.113,5.11s5.114-2.298,5.114-5.11c0-0.938-0.254-1.831-0.704-2.583
			h11.389c-0.449,0.764-0.703,1.645-0.703,2.583c0,2.822,2.297,5.11,5.111,5.11c2.816,0,5.113-2.298,5.113-5.11
			c0-2.816-2.297-5.114-5.113-5.114H-3.982c-1.461,0-2.645-1.191-2.645-2.646V27.42C-5.858,27.87-4.947,28.134-3.982,28.134
			L-3.982,28.134z M2.323,36.683c0,1.427-1.163,2.579-2.581,2.579c-1.416,0-2.58-1.163-2.58-2.579c0-1.418,1.164-2.581,2.58-2.581
			C1.161,34.102,2.323,35.255,2.323,36.683L2.323,36.683z M22.531,36.683c0,1.427-1.164,2.579-2.58,2.579
			c-1.418,0-2.58-1.163-2.58-2.579c0-1.418,1.164-2.581,2.58-2.581S22.531,35.255,22.531,36.683L22.531,36.683z M21.17,25.601
			H-3.982c-1.461,0-2.645-1.192-2.645-2.646V12.289l30.443,3.643v7.014C23.817,24.419,22.627,25.601,21.17,25.601L21.17,25.601z"/>
	</g>
</g>
</svg>
