<svg width="48" height="51" viewBox="0 0 48 51" fill="none" xmlns="http://www.w3.org/2000/svg">
<path d="M45.5058 26.2406C45.3073 25.8346 45.3073 25.3689 45.5058 24.963L47.3452 21.1999C48.3694 19.1047 47.5579 16.6074 45.4979 15.5144L41.7979 13.5512C41.3987 13.3395 41.1251 12.9626 41.0469 12.5177L40.3233 8.39207C39.9204 6.09503 37.7956 4.55147 35.4869 4.87812L31.3397 5.46476C30.892 5.52795 30.4494 5.38404 30.1247 5.06991L27.1143 2.15772C25.4381 0.536138 22.8122 0.536041 21.1361 2.15772L18.1257 5.0702C17.8009 5.38442 17.3582 5.52805 16.9107 5.46505L12.7635 4.87841C10.454 4.55157 8.33 6.09532 7.92706 8.39236L7.20344 12.5178C7.12532 12.9628 6.85165 13.3396 6.45257 13.5514L2.75261 15.5146C0.692537 16.6075 -0.11893 19.105 0.905229 21.2002L2.74461 24.9632C2.94305 25.3692 2.94305 25.8349 2.74461 26.2408L0.905133 30.0037C-0.119026 32.099 0.692441 34.5963 2.75251 35.6893L6.45247 37.6525C6.85165 37.8642 7.12532 38.241 7.20344 38.686L7.92706 42.8116C8.29388 44.9027 10.0869 46.3692 12.1477 46.369C12.3506 46.369 12.5566 46.3547 12.7636 46.3255L16.9108 45.7388C17.3581 45.6753 17.801 45.8195 18.1258 46.1337L21.1361 49.0459C21.9744 49.8567 23.0496 50.2621 24.1252 50.262C25.2005 50.2619 26.2764 49.8565 27.1142 49.0459L30.1247 46.1337C30.4495 45.8195 30.8922 45.676 31.3397 45.7388L35.4869 46.3255C37.7966 46.6522 39.9204 45.1085 40.3233 42.8115L41.047 38.6861C41.1252 38.241 41.3988 37.8643 41.7979 37.6525L45.4979 35.6893C47.5579 34.5964 48.3694 32.0989 47.3452 30.0036L45.5058 26.2406ZM44.1646 33.1764L40.4646 35.1396C39.285 35.7656 38.4759 36.879 38.2452 38.1944L37.5216 42.3199C37.3853 43.0971 36.6668 43.6191 35.8853 43.5088L31.7381 42.9222C30.4155 42.7348 29.1068 43.1605 28.1469 44.089L25.1364 47.0011C24.5695 47.5496 23.681 47.5496 23.1138 47.0011L20.1035 44.0889C19.2922 43.3041 18.2317 42.8788 17.1245 42.8788C16.9216 42.8788 16.7171 42.8931 16.5123 42.9221L12.3651 43.5087C11.5842 43.6191 10.8652 43.097 10.7288 42.3198L10.005 38.1942C9.77424 36.8788 8.96528 35.7653 7.78555 35.1395L4.08559 33.1763C3.38857 32.8065 3.11403 31.9616 3.46052 31.2527L5.3 27.4897C5.88645 26.2898 5.88645 24.9137 5.3 23.7138L3.46052 19.9508C3.11403 19.2419 3.38857 18.397 4.08559 18.0272L7.78555 16.064C8.96519 15.438 9.77424 14.3246 10.0049 13.0092L10.7286 8.88363C10.865 8.10646 11.5834 7.58436 12.3649 7.69475L16.5121 8.28139C17.8342 8.46855 19.1434 8.04307 20.1033 7.11457L23.1137 4.20238C23.6807 3.65389 24.5692 3.65389 25.1363 4.20238L28.1467 7.11457C29.1066 8.04317 30.4156 8.46855 31.7379 8.28139L35.8851 7.69475C36.666 7.58426 37.3851 8.10646 37.5214 8.88363L38.245 13.0093C38.4758 14.3247 39.2848 15.4382 40.4645 16.064L44.1645 18.0272C44.8615 18.397 45.1361 19.2419 44.7896 19.9508L42.9501 23.7137C42.3636 24.9135 42.3636 26.2898 42.9501 27.4896L44.7896 31.2525C45.1362 31.9616 44.8616 32.8066 44.1646 33.1764Z" fill="#6FCF97"/>
<path d="M19.1095 28.2248H17.0645L14.0411 22.9162V28.2248H11.9845V19.6936H14.0411L17.0587 25.0022V19.6936H19.1095V28.2248ZM25.7013 24.6096H22.4669V26.6428H26.2872V28.2248H20.4102V19.6936H26.2989V21.2815H22.4669V23.0803H25.7013V24.6096ZM33.7345 25.0432L34.713 19.6936H36.752L34.9415 28.2248H32.8087L31.6661 23.3615L30.547 28.2248H28.42L26.6036 19.6936H28.6485L29.627 25.0432L30.7989 19.6936H32.545L33.7345 25.0432Z" fill="#6FCF97"/>
</svg>
